<?xml version="1.0" encoding="UTF-8"?>
<svg width="32" height="32" viewBox="0 0 32 32" fill="none" xmlns="http://www.w3.org/2000/svg">
  <rect width="32" height="32" rx="8" fill="#3B82F6"/>
  <path d="M12 8v2.667M20 8v2.667M12 21.333V24M20 21.333V24M9.333 12H8m1.333 8H8m16-8h-1.333m1.333 8h-1.333M10.667 21.333h10.666A2.667 2.667 0 0024 18.667V13.333a2.667 2.667 0 00-2.667-2.666H10.667A2.667 2.667 0 008 13.333v5.334a2.667 2.667 0 002.667 2.666zM12 12h8v8h-8v-8z" stroke="white" stroke-width="2" stroke-linecap="round" stroke-linejoin="round"/>
</svg> 